{
	"asset":{
		"generator":"Khronos glTF Blender I/O v4.1.63",
		"version":"2.0"
	},
	"scene":0,
	"scenes":[
		{
			"name":"Scene",
			"nodes":[
				0
			]
		}
	],
	"nodes":[
		{
			"mesh":0,
			"name":"Mball.021",
			"rotation":[
				0.7071068286895752,
				0,
				0,
				0.7071068286895752
			],
			"translation":[
				0,
				-1.1273815631866455,
				-1.1273815631866455
			]
		}
	],
	"materials":[
		{
			"doubleSided":true,
			"emissiveFactor":[
				0.10000000149011612,
				0.10000000149011612,
				0.10000000149011612
			],
			"name":"Material.002",
			"pbrMetallicRoughness":{
				"baseColorFactor":[
					0.800000011920929,
					0.800000011920929,
					0.800000011920929,
					1
				],
				"metallicFactor":0,
				"roughnessFactor":0.5
			}
		}
	],
	"meshes":[
		{
			"name":"Mesh",
			"primitives":[
				{
					"attributes":{
						"POSITION":0,
						"NORMAL":1
					},
					"indices":2,
					"material":0
				}
			]
		}
	],
	"accessors":[
		{
			"bufferView":0,
			"componentType":5126,
			"count":4708,
			"max":[
				6.194917678833008,
				2.2081570625305176,
				1.6313668489456177
			],
			"min":[
				-3.855839490890503,
				-2.3250904083251953,
				-4.721336364746094
			],
			"type":"VEC3"
		},
		{
			"bufferView":1,
			"componentType":5126,
			"count":4708,
			"type":"VEC3"
		},
		{
			"bufferView":2,
			"componentType":5123,
			"count":28236,
			"type":"SCALAR"
		}
	],
	"bufferViews":[
		{
			"buffer":0,
			"byteLength":56496,
			"byteOffset":0,
			"target":34962
		},
		{
			"buffer":0,
			"byteLength":56496,
			"byteOffset":56496,
			"target":34962
		},
		{
			"buffer":0,
			"byteLength":56472,
			"byteOffset":112992,
			"target":34963
		}
	],
	"buffers":[
		{
			"byteLength":169464,
			"uri":"cloud1.bin"
		}
	]
}
